<svg xmlns="http://www.w3.org/2000/svg" viewBox="0 0 200 280" width="200" height="280">
  <defs>
    <style>
      .logo-stroke { fill: none; stroke: #8B1538; stroke-width: 1.5; }
      .logo-text { font-family: Arial, sans-serif; font-weight: bold; fill: #8B1538; text-anchor: middle; }
    </style>
  </defs>
  
  <!-- Outer concentric circles -->
  <circle cx="100" cy="100" r="98" class="logo-stroke" stroke-width="3"/>
  <circle cx="100" cy="100" r="94" class="logo-stroke" stroke-width="1"/>
  <circle cx="100" cy="100" r="90" class="logo-stroke" stroke-width="1"/>
  
  <!-- Inner mandala pattern -->
  <g class="logo-stroke">
    <!-- Center flower with 8 petals -->
    <g transform="translate(100,100)">
      <!-- Center circle -->
      <circle cx="0" cy="0" r="8"/>
      
      <!-- 8 petal shapes around center -->
      <g stroke-width="1">
        <ellipse cx="0" cy="-18" rx="6" ry="12" transform="rotate(0)"/>
        <ellipse cx="0" cy="-18" rx="6" ry="12" transform="rotate(45)"/>
        <ellipse cx="0" cy="-18" rx="6" ry="12" transform="rotate(90)"/>
        <ellipse cx="0" cy="-18" rx="6" ry="12" transform="rotate(135)"/>
        <ellipse cx="0" cy="-18" rx="6" ry="12" transform="rotate(180)"/>
        <ellipse cx="0" cy="-18" rx="6" ry="12" transform="rotate(225)"/>
        <ellipse cx="0" cy="-18" rx="6" ry="12" transform="rotate(270)"/>
        <ellipse cx="0" cy="-18" rx="6" ry="12" transform="rotate(315)"/>
      </g>
    </g>
    
    <!-- 8 outer circular elements with internal patterns -->
    <g transform="translate(100,100)">
      <!-- Top -->
      <g transform="translate(0,-60)">
        <circle cx="0" cy="0" r="18"/>
        <circle cx="0" cy="0" r="12"/>
        <circle cx="0" cy="0" r="6"/>
        <line x1="0" y1="-12" x2="0" y2="12"/>
        <line x1="-8" y1="-8" x2="8" y2="8"/>
        <line x1="-8" y1="8" x2="8" y2="-8"/>
      </g>
      
      <!-- Top-right -->
      <g transform="translate(42.4,-42.4)">
        <circle cx="0" cy="0" r="18"/>
        <circle cx="0" cy="0" r="12"/>
        <circle cx="0" cy="0" r="6"/>
        <line x1="0" y1="-12" x2="0" y2="12"/>
        <line x1="-8" y1="-8" x2="8" y2="8"/>
        <line x1="-8" y1="8" x2="8" y2="-8"/>
      </g>
      
      <!-- Right -->
      <g transform="translate(60,0)">
        <circle cx="0" cy="0" r="18"/>
        <circle cx="0" cy="0" r="12"/>
        <circle cx="0" cy="0" r="6"/>
        <line x1="0" y1="-12" x2="0" y2="12"/>
        <line x1="-8" y1="-8" x2="8" y2="8"/>
        <line x1="-8" y1="8" x2="8" y2="-8"/>
      </g>
      
      <!-- Bottom-right -->
      <g transform="translate(42.4,42.4)">
        <circle cx="0" cy="0" r="18"/>
        <circle cx="0" cy="0" r="12"/>
        <circle cx="0" cy="0" r="6"/>
        <line x1="0" y1="-12" x2="0" y2="12"/>
        <line x1="-8" y1="-8" x2="8" y2="8"/>
        <line x1="-8" y1="8" x2="8" y2="-8"/>
      </g>
      
      <!-- Bottom -->
      <g transform="translate(0,60)">
        <circle cx="0" cy="0" r="18"/>
        <circle cx="0" cy="0" r="12"/>
        <circle cx="0" cy="0" r="6"/>
        <line x1="0" y1="-12" x2="0" y2="12"/>
        <line x1="-8" y1="-8" x2="8" y2="8"/>
        <line x1="-8" y1="8" x2="8" y2="-8"/>
      </g>
      
      <!-- Bottom-left -->
      <g transform="translate(-42.4,42.4)">
        <circle cx="0" cy="0" r="18"/>
        <circle cx="0" cy="0" r="12"/>
        <circle cx="0" cy="0" r="6"/>
        <line x1="0" y1="-12" x2="0" y2="12"/>
        <line x1="-8" y1="-8" x2="8" y2="8"/>
        <line x1="-8" y1="8" x2="8" y2="-8"/>
      </g>
      
      <!-- Left -->
      <g transform="translate(-60,0)">
        <circle cx="0" cy="0" r="18"/>
        <circle cx="0" cy="0" r="12"/>
        <circle cx="0" cy="0" r="6"/>
        <line x1="0" y1="-12" x2="0" y2="12"/>
        <line x1="-8" y1="-8" x2="8" y2="8"/>
        <line x1="-8" y1="8" x2="8" y2="-8"/>
      </g>
      
      <!-- Top-left -->
      <g transform="translate(-42.4,-42.4)">
        <circle cx="0" cy="0" r="18"/>
        <circle cx="0" cy="0" r="12"/>
        <circle cx="0" cy="0" r="6"/>
        <line x1="0" y1="-12" x2="0" y2="12"/>
        <line x1="-8" y1="-8" x2="8" y2="8"/>
        <line x1="-8" y1="8" x2="8" y2="-8"/>
      </g>
    </g>
    
    <!-- Connecting lines from center to outer elements -->
    <g transform="translate(100,100)" stroke-width="1">
      <line x1="0" y1="-30" x2="0" y2="-42"/>
      <line x1="21.2" y1="-21.2" x2="30" y2="-30"/>
      <line x1="30" y1="0" x2="42" y2="0"/>
      <line x1="21.2" y1="21.2" x2="30" y2="30"/>
      <line x1="0" y1="30" x2="0" y2="42"/>
      <line x1="-21.2" y1="21.2" x2="-30" y2="30"/>
      <line x1="-30" y1="0" x2="-42" y2="0"/>
      <line x1="-21.2" y1="-21.2" x2="-30" y2="-30"/>
    </g>
  </g>
  
  <!-- Text -->
  <text x="100" y="240" class="logo-text" font-size="18">PHYSIOTHERAPIE</text>
  <text x="100" y="265" class="logo-text" font-size="18">STÖCKER</text>
</svg>
